<svg xmlns="http://www.w3.org/2000/svg" viewBox="0 0 78.22 24.65"><defs><style>.a{fill:#f7e56e;}</style></defs><path class="a" d="M65.9,0H12.33a12.33,12.33,0,1,0,0,24.65H65.9A12.33,12.33,0,0,0,65.9,0Z"/><path d="M16.82,14.16l-.83.21-.14-.66a20.44,20.44,0,0,1-3.57.79L12,13.58a1.9,1.9,0,0,0,.46-.29,14,14,0,0,0,1.82-2.54l-2.13.34-.24-.93a1.2,1.2,0,0,0,.41-.38,20.17,20.17,0,0,0,1.81-4l.95.4a20.21,20.21,0,0,1-2,3.9c.58-.07,1.17-.16,1.76-.27l.91-1.68.91.33a32.1,32.1,0,0,1-3.2,5c.73-.14,1.46-.29,2.19-.49a12.09,12.09,0,0,0-.38-1.2l.79-.26A22.52,22.52,0,0,1,16.82,14.16Zm-3.43,1.12a14.17,14.17,0,0,1-.56,3.23L12,18.25a12.29,12.29,0,0,0,.6-3.07Zm1.84,2.59-.87.21c-.1-1.1-.21-2.07-.32-2.91l.78-.17C15,15.89,15.12,16.84,15.23,17.87Zm1.68-1.24-.73.34a19.37,19.37,0,0,0-.68-2.07l.73-.23A14.51,14.51,0,0,1,16.91,16.63Zm2.71-3.27v.7a7,7,0,0,1-2.48,4.16l-.55-.75a6.12,6.12,0,0,0,2.14-3.27h-1.6v-.84ZM19.54,7A6.13,6.13,0,0,0,20,5.78l1,.14A4.78,4.78,0,0,1,20.52,7H23.7v5H21.25v1a8.74,8.74,0,0,0,.62,1.27,10.56,10.56,0,0,0,2.06-1.55l.58.68A13,13,0,0,1,22.32,15a11,11,0,0,0,2.43,2.45l-.62.76a12.65,12.65,0,0,1-2.88-3.56V17.5a1,1,0,0,1-1.11,1.14H19.06l-.21-.9c.34,0,.66.06,1,.06a.45.45,0,0,0,.48-.52V12H17.52V7Zm3.23,2.1V7.91H18.44v1.2Zm0,.84H18.44v1.19h4.33Z"/><path d="M32.16,5.78v4.34h5.21v1H32.16v6h6.4v1H26.07v-1h5.05V5.78Z"/><path d="M42,15.69a14.9,14.9,0,0,1-1.35,2.79l-.79-.4a14.6,14.6,0,0,0,1.36-2.75Zm2.23-9.38v8.52H40.4V6.31ZM43.3,8.78V7.15h-2V8.78Zm0,2.54V9.6h-2v1.72Zm0,.83h-2V14h2Zm1.43,5.62-.73.5a19.9,19.9,0,0,0-1.41-2.54l.72-.43A18.81,18.81,0,0,1,44.73,17.77Zm2.89-12V6.8h2.19V5.74h.93V6.8h1.68v.8H50.74v1h1.43v.77H50.74v1h2v.8H49.15V12H52v3.54h.76v.83H52v1.19c0,.68-.37,1-1.13,1H49.71l-.22-.83,1.08,0c.32,0,.49-.16.49-.44v-1H46.34v2.23h-.92V16.38h-.83v-.83h.83V12h2.8v-.9H44.73v-.8h2v-1H45.27V8.57h1.44v-1H45V6.8h1.7V5.74Zm-1.28,7v1h1.88v-1Zm1.88,2.78V14.5H46.34v1.05Zm1.59-7v-1H47.62v1Zm0,1.74v-1H47.62v1Zm1.25,2.46H49.15v1h1.91Zm0,2.78V14.5H49.15v1.05Z"/><path d="M54.77,11.75l-.89-.26a15.55,15.55,0,0,0,.9-4.69l.88.07c0,.62-.08,1.24-.16,1.84h1V5.79h1V8.71h1.18v1H57.46v3.36c.39-.18.76-.36,1.12-.56v1c-.36.19-.74.38-1.12.56v4.63h-1V14.44c-.72.28-1.45.55-2.21.79l-.23-1a18.15,18.15,0,0,0,2.44-.75V9.7H55.33C55.17,10.4,55,11.09,54.77,11.75ZM61.36,6c-.15.73-.32,1.4-.51,2h5.44q0,7-.21,8.67a2,2,0,0,1-2.27,1.86l-1.06,0-.23-.92c.45,0,.82.06,1.15.06a1.37,1.37,0,0,0,1.47-1.35c.1-.78.16-3.23.18-7.3h-.95a23.54,23.54,0,0,1-1.28,5.56,11.7,11.7,0,0,1-2.88,4l-.61-.8a11,11,0,0,0,2.63-3.54A20.13,20.13,0,0,0,63.46,9h-1.1q-.84,4.59-3.2,6.67l-.66-.76a10,10,0,0,0,3-5.91h-1a9.4,9.4,0,0,1-1.27,2.22l-.75-.63a10.85,10.85,0,0,0,1.94-4.85Z"/></svg>